# xmcd
#
# Track frame offsets: 
#        150
#        13352
#        28287
#        48420
#        62247
#        78752
#        92212
#        105780
#        123022
#        138657
#
# Disc length: 2086 seconds
#
# Revision: 0
# Processed by: cddbd v1.4PL0 Copyright (c) Steve Scherf et al.
# Submitted via: ExactAudioCopy v0.90b4
#
DISCID=7f08240a
DTITLE=The Whites - Doing It By the Book
DYEAR=1988
DGENRE=Gospel
TTITLE0=Doing It By the Book
TTITLE1=Fall Down Children
TTITLE2=He Took Your Place
TTITLE3=Home Away from Home
TTITLE4=Blood Bought Church
TTITLE5=A Brand New Breed
TTITLE6=It's Not What You Know (It's Who You Know)
TTITLE7=Help Me
TTITLE8=He Hasn't Lost His Touch
TTITLE9=Another Soldier Down
EXTD=
EXTT0=
EXTT1=
EXTT2=
EXTT3=
EXTT4=
EXTT5=
EXTT6=
EXTT7=
EXTT8=
EXTT9=
PLAYORDER=
